<mxfile host="app.diagrams.net" modified="2022-04-22T01:57:58.926Z" agent="5.0 (Windows NT 10.0; WOW64) AppleWebKit/537.36 (KHTML, like Gecko) Chrome/78.0.3904.108 Safari/537.36" etag="khEgGDufU6KjvuqkyEew" version="17.4.5" type="github">
  <diagram id="2hvGRixQI1NttPmxZqW4" name="Page-1">
    <mxGraphModel dx="1422" dy="762" grid="1" gridSize="10" guides="1" tooltips="1" connect="1" arrows="1" fold="1" page="1" pageScale="1" pageWidth="827" pageHeight="1169" math="0" shadow="0">
      <root>
        <mxCell id="0" />
        <mxCell id="1" parent="0" />
        <mxCell id="53oVMIumwL6rekQ-fXR3-16" style="edgeStyle=orthogonalEdgeStyle;rounded=0;orthogonalLoop=1;jettySize=auto;html=1;" edge="1" parent="1" source="53oVMIumwL6rekQ-fXR3-1" target="53oVMIumwL6rekQ-fXR3-2">
          <mxGeometry relative="1" as="geometry">
            <Array as="points">
              <mxPoint x="420" y="200" />
              <mxPoint x="420" y="200" />
            </Array>
          </mxGeometry>
        </mxCell>
        <mxCell id="53oVMIumwL6rekQ-fXR3-1" value="客户群反馈系统问题" style="rounded=1;whiteSpace=wrap;html=1;" vertex="1" parent="1">
          <mxGeometry x="330" y="110" width="120" height="60" as="geometry" />
        </mxCell>
        <mxCell id="53oVMIumwL6rekQ-fXR3-5" value="" style="edgeStyle=orthogonalEdgeStyle;rounded=0;orthogonalLoop=1;jettySize=auto;html=1;" edge="1" parent="1" source="53oVMIumwL6rekQ-fXR3-2" target="53oVMIumwL6rekQ-fXR3-4">
          <mxGeometry relative="1" as="geometry" />
        </mxCell>
        <mxCell id="53oVMIumwL6rekQ-fXR3-20" value="反馈结果" style="edgeStyle=orthogonalEdgeStyle;rounded=0;orthogonalLoop=1;jettySize=auto;html=1;entryX=0.25;entryY=1;entryDx=0;entryDy=0;" edge="1" parent="1" source="53oVMIumwL6rekQ-fXR3-2" target="53oVMIumwL6rekQ-fXR3-1">
          <mxGeometry relative="1" as="geometry">
            <Array as="points">
              <mxPoint x="360" y="220" />
              <mxPoint x="360" y="220" />
            </Array>
          </mxGeometry>
        </mxCell>
        <mxCell id="53oVMIumwL6rekQ-fXR3-2" value="测试第一时间回复、复现" style="rounded=1;whiteSpace=wrap;html=1;" vertex="1" parent="1">
          <mxGeometry x="330" y="240" width="120" height="60" as="geometry" />
        </mxCell>
        <mxCell id="53oVMIumwL6rekQ-fXR3-13" style="edgeStyle=orthogonalEdgeStyle;rounded=0;orthogonalLoop=1;jettySize=auto;html=1;" edge="1" parent="1" source="53oVMIumwL6rekQ-fXR3-3" target="53oVMIumwL6rekQ-fXR3-12">
          <mxGeometry relative="1" as="geometry" />
        </mxCell>
        <mxCell id="53oVMIumwL6rekQ-fXR3-3" value="开发排查给出原因" style="rounded=1;whiteSpace=wrap;html=1;" vertex="1" parent="1">
          <mxGeometry x="330" y="390" width="120" height="60" as="geometry" />
        </mxCell>
        <mxCell id="53oVMIumwL6rekQ-fXR3-6" style="edgeStyle=orthogonalEdgeStyle;rounded=0;orthogonalLoop=1;jettySize=auto;html=1;" edge="1" parent="1" source="53oVMIumwL6rekQ-fXR3-4" target="53oVMIumwL6rekQ-fXR3-3">
          <mxGeometry relative="1" as="geometry">
            <Array as="points">
              <mxPoint x="590" y="420" />
            </Array>
          </mxGeometry>
        </mxCell>
        <mxCell id="53oVMIumwL6rekQ-fXR3-7" value="是" style="edgeLabel;html=1;align=center;verticalAlign=middle;resizable=0;points=[];" vertex="1" connectable="0" parent="53oVMIumwL6rekQ-fXR3-6">
          <mxGeometry x="-0.104" y="2" relative="1" as="geometry">
            <mxPoint as="offset" />
          </mxGeometry>
        </mxCell>
        <mxCell id="53oVMIumwL6rekQ-fXR3-8" style="edgeStyle=orthogonalEdgeStyle;rounded=0;orthogonalLoop=1;jettySize=auto;html=1;entryX=1;entryY=0.5;entryDx=0;entryDy=0;" edge="1" parent="1" source="53oVMIumwL6rekQ-fXR3-4" target="53oVMIumwL6rekQ-fXR3-1">
          <mxGeometry relative="1" as="geometry">
            <Array as="points">
              <mxPoint x="590" y="140" />
            </Array>
          </mxGeometry>
        </mxCell>
        <mxCell id="53oVMIumwL6rekQ-fXR3-9" value="否" style="edgeLabel;html=1;align=center;verticalAlign=middle;resizable=0;points=[];" vertex="1" connectable="0" parent="53oVMIumwL6rekQ-fXR3-8">
          <mxGeometry x="-0.5217" relative="1" as="geometry">
            <mxPoint as="offset" />
          </mxGeometry>
        </mxCell>
        <mxCell id="53oVMIumwL6rekQ-fXR3-4" value="是否bug" style="rhombus;whiteSpace=wrap;html=1;rounded=1;" vertex="1" parent="1">
          <mxGeometry x="550" y="230" width="80" height="80" as="geometry" />
        </mxCell>
        <mxCell id="53oVMIumwL6rekQ-fXR3-14" style="edgeStyle=orthogonalEdgeStyle;rounded=0;orthogonalLoop=1;jettySize=auto;html=1;entryX=0;entryY=0.5;entryDx=0;entryDy=0;" edge="1" parent="1" source="53oVMIumwL6rekQ-fXR3-12" target="53oVMIumwL6rekQ-fXR3-2">
          <mxGeometry relative="1" as="geometry">
            <Array as="points">
              <mxPoint x="290" y="560" />
              <mxPoint x="290" y="270" />
            </Array>
          </mxGeometry>
        </mxCell>
        <mxCell id="53oVMIumwL6rekQ-fXR3-15" value="否" style="edgeLabel;html=1;align=center;verticalAlign=middle;resizable=0;points=[];" vertex="1" connectable="0" parent="53oVMIumwL6rekQ-fXR3-14">
          <mxGeometry x="-0.359" y="3" relative="1" as="geometry">
            <mxPoint y="-85" as="offset" />
          </mxGeometry>
        </mxCell>
        <mxCell id="53oVMIumwL6rekQ-fXR3-18" value="是" style="edgeStyle=orthogonalEdgeStyle;rounded=0;orthogonalLoop=1;jettySize=auto;html=1;" edge="1" parent="1" source="53oVMIumwL6rekQ-fXR3-12" target="53oVMIumwL6rekQ-fXR3-17">
          <mxGeometry relative="1" as="geometry" />
        </mxCell>
        <mxCell id="53oVMIumwL6rekQ-fXR3-12" value="是否需要升级" style="rhombus;whiteSpace=wrap;html=1;rounded=1;" vertex="1" parent="1">
          <mxGeometry x="350" y="520" width="80" height="80" as="geometry" />
        </mxCell>
        <mxCell id="53oVMIumwL6rekQ-fXR3-21" style="edgeStyle=orthogonalEdgeStyle;rounded=0;orthogonalLoop=1;jettySize=auto;html=1;entryX=0;entryY=0.5;entryDx=0;entryDy=0;" edge="1" parent="1" source="53oVMIumwL6rekQ-fXR3-17" target="53oVMIumwL6rekQ-fXR3-1">
          <mxGeometry relative="1" as="geometry">
            <Array as="points">
              <mxPoint x="160" y="700" />
              <mxPoint x="160" y="140" />
            </Array>
          </mxGeometry>
        </mxCell>
        <mxCell id="53oVMIumwL6rekQ-fXR3-22" value="与客户沟通并确认上下时间" style="edgeLabel;html=1;align=center;verticalAlign=middle;resizable=0;points=[];" vertex="1" connectable="0" parent="53oVMIumwL6rekQ-fXR3-21">
          <mxGeometry x="-0.3711" y="-1" relative="1" as="geometry">
            <mxPoint as="offset" />
          </mxGeometry>
        </mxCell>
        <mxCell id="53oVMIumwL6rekQ-fXR3-24" value="通知开发及测试" style="edgeStyle=orthogonalEdgeStyle;rounded=0;orthogonalLoop=1;jettySize=auto;html=1;" edge="1" parent="1" source="53oVMIumwL6rekQ-fXR3-17" target="53oVMIumwL6rekQ-fXR3-23">
          <mxGeometry relative="1" as="geometry" />
        </mxCell>
        <mxCell id="53oVMIumwL6rekQ-fXR3-17" value="产品介入确定上线时间" style="rounded=1;whiteSpace=wrap;html=1;" vertex="1" parent="1">
          <mxGeometry x="330" y="670" width="120" height="60" as="geometry" />
        </mxCell>
        <mxCell id="53oVMIumwL6rekQ-fXR3-23" value="开发、测试" style="rounded=1;whiteSpace=wrap;html=1;" vertex="1" parent="1">
          <mxGeometry x="330" y="820" width="120" height="60" as="geometry" />
        </mxCell>
      </root>
    </mxGraphModel>
  </diagram>
</mxfile>
